P2
4 4
255
0 64 128 255
64 128 255 0
128 255 0 64
255 0 64 128
